<mxfile host="app.diagrams.net" modified="2020-04-12T21:46:40.738Z" agent="5.0 (Macintosh; Intel Mac OS X 10_14_6) AppleWebKit/537.36 (KHTML, like Gecko) Chrome/80.0.3987.149 Safari/537.36" etag="Q3I4DJwEs68zPNb8KLqC" version="12.9.11" type="github">
  <diagram id="sFrgJfjumHwAQuDH-slQ" name="Page-1">
    <mxGraphModel dx="2263" dy="488" grid="0" gridSize="10" guides="1" tooltips="1" connect="1" arrows="1" fold="1" page="1" pageScale="1" pageWidth="827" pageHeight="1169" math="0" shadow="0">
      <root>
        <mxCell id="0" />
        <mxCell id="1" parent="0" />
        <mxCell id="fsdaaxAR7G3zy82fQWHU-1" value="&lt;br&gt;&lt;b&gt;Customer&lt;/b&gt;&lt;div&gt;&amp;lt;person&amp;gt;&lt;/div&gt;&lt;br&gt;&lt;div&gt;A customer of the&amp;nbsp;&lt;/div&gt;&lt;div&gt;Online Shipping Application&lt;/div&gt;" style="html=1;dashed=0;whitespace=wrap;fillColor=#DAE8FC;strokeColor=#6C8EBF;shape=mxgraph.c4.person;align=center;points=[[0.5,0,0],[1,0.5,0],[1,0.75,0],[0.75,1,0],[0.5,1,0],[0.25,1,0],[0,0.75,0],[0,0.5,0]];" parent="1" vertex="1">
          <mxGeometry x="-20" y="300" width="190" height="180" as="geometry" />
        </mxCell>
        <mxCell id="fsdaaxAR7G3zy82fQWHU-2" value="&lt;b&gt;Online Shopping Application&lt;/b&gt;.&lt;br&gt;&amp;lt;software_system&amp;gt;&lt;br&gt;&lt;br&gt;Allows customer purchases, Virtual Fitting Room, Checkouts, History.&amp;nbsp;" style="whiteSpace=wrap;html=1;aspect=fixed;fillColor=#7EA6E0;" parent="1" vertex="1">
          <mxGeometry x="380" y="330" width="150" height="150" as="geometry" />
        </mxCell>
        <mxCell id="fsdaaxAR7G3zy82fQWHU-3" value="&amp;lt;external_system&amp;gt;&lt;br&gt;&lt;b&gt;EMAIL&lt;/b&gt;&lt;br&gt;&lt;br&gt;Email System" style="rounded=0;whiteSpace=wrap;html=1;fillColor=#A680B8;" parent="1" vertex="1">
          <mxGeometry x="827" y="160" width="150" height="80" as="geometry" />
        </mxCell>
        <mxCell id="fsdaaxAR7G3zy82fQWHU-5" value="&amp;lt;external_system&amp;gt;&lt;br&gt;&lt;b&gt;DELIVERY&lt;/b&gt;&lt;br&gt;&lt;br&gt;Shipping and Handling&amp;nbsp;&lt;br&gt;Delivery System" style="rounded=0;whiteSpace=wrap;html=1;fillColor=#A680B8;" parent="1" vertex="1">
          <mxGeometry x="827" y="365" width="150" height="80" as="geometry" />
        </mxCell>
        <mxCell id="fsdaaxAR7G3zy82fQWHU-6" value="&amp;lt;external_system&amp;gt;&lt;br&gt;&lt;b&gt;Payment System&lt;/b&gt;&lt;br&gt;&lt;br&gt;Payment Processing System" style="rounded=0;whiteSpace=wrap;html=1;fillColor=#A680B8;" parent="1" vertex="1">
          <mxGeometry x="827" y="560" width="150" height="80" as="geometry" />
        </mxCell>
        <mxCell id="fsdaaxAR7G3zy82fQWHU-11" value="" style="edgeStyle=elbowEdgeStyle;elbow=vertical;endArrow=classic;html=1;entryX=1;entryY=0.5;entryDx=0;entryDy=0;entryPerimeter=0;exitX=0.5;exitY=0;exitDx=0;exitDy=0;" parent="1" source="fsdaaxAR7G3zy82fQWHU-3" target="fsdaaxAR7G3zy82fQWHU-1" edge="1">
          <mxGeometry width="50" height="50" relative="1" as="geometry">
            <mxPoint x="800" y="150" as="sourcePoint" />
            <mxPoint x="700" y="130" as="targetPoint" />
            <Array as="points">
              <mxPoint x="430" y="110" />
            </Array>
          </mxGeometry>
        </mxCell>
        <mxCell id="fsdaaxAR7G3zy82fQWHU-12" value="&lt;b&gt;Sends Email to&lt;/b&gt;" style="edgeLabel;html=1;align=center;verticalAlign=middle;resizable=0;points=[];" parent="fsdaaxAR7G3zy82fQWHU-11" vertex="1" connectable="0">
          <mxGeometry x="-0.2273" relative="1" as="geometry">
            <mxPoint as="offset" />
          </mxGeometry>
        </mxCell>
        <mxCell id="fsdaaxAR7G3zy82fQWHU-13" value="Browsing, Login, Checkouts, Registrations, History, logouts [HTTPS]" style="text;html=1;strokeColor=none;fillColor=none;align=center;verticalAlign=middle;whiteSpace=wrap;rounded=0;" parent="1" vertex="1">
          <mxGeometry x="200" y="330" width="136" height="70" as="geometry" />
        </mxCell>
        <mxCell id="Ds3kx13XMhnkV48HS9qH-2" value="" style="endArrow=classic;html=1;exitX=1.016;exitY=0.628;exitDx=0;exitDy=0;exitPerimeter=0;entryX=-0.013;entryY=0.553;entryDx=0;entryDy=0;entryPerimeter=0;" edge="1" parent="1" source="fsdaaxAR7G3zy82fQWHU-1" target="fsdaaxAR7G3zy82fQWHU-2">
          <mxGeometry width="50" height="50" relative="1" as="geometry">
            <mxPoint x="240" y="450" as="sourcePoint" />
            <mxPoint x="290" y="400" as="targetPoint" />
          </mxGeometry>
        </mxCell>
        <mxCell id="Ds3kx13XMhnkV48HS9qH-3" value="&lt;b&gt;Sends Email using&lt;/b&gt;" style="endArrow=classic;html=1;entryX=0;entryY=0.5;entryDx=0;entryDy=0;" edge="1" parent="1" target="fsdaaxAR7G3zy82fQWHU-3">
          <mxGeometry width="50" height="50" relative="1" as="geometry">
            <mxPoint x="530" y="360" as="sourcePoint" />
            <mxPoint x="580" y="310" as="targetPoint" />
          </mxGeometry>
        </mxCell>
        <mxCell id="Ds3kx13XMhnkV48HS9qH-4" value="" style="endArrow=classic;html=1;exitX=1;exitY=0.5;exitDx=0;exitDy=0;entryX=0;entryY=0.5;entryDx=0;entryDy=0;" edge="1" parent="1" source="fsdaaxAR7G3zy82fQWHU-2" target="fsdaaxAR7G3zy82fQWHU-5">
          <mxGeometry width="50" height="50" relative="1" as="geometry">
            <mxPoint x="530" y="420" as="sourcePoint" />
            <mxPoint x="580" y="370" as="targetPoint" />
          </mxGeometry>
        </mxCell>
        <mxCell id="Ds3kx13XMhnkV48HS9qH-7" value="&lt;b&gt;Retrieve and process&lt;br&gt;Shipping Order&lt;br&gt;&amp;nbsp;handling informations.&lt;/b&gt;" style="edgeLabel;html=1;align=center;verticalAlign=middle;resizable=0;points=[];" vertex="1" connectable="0" parent="Ds3kx13XMhnkV48HS9qH-4">
          <mxGeometry x="-0.0129" y="1" relative="1" as="geometry">
            <mxPoint as="offset" />
          </mxGeometry>
        </mxCell>
        <mxCell id="Ds3kx13XMhnkV48HS9qH-8" value="&lt;b&gt;Retrieve and Process&lt;br&gt;Payment Systems&amp;nbsp;&lt;/b&gt;" style="endArrow=classic;html=1;entryX=0;entryY=0.5;entryDx=0;entryDy=0;exitX=1;exitY=0.75;exitDx=0;exitDy=0;" edge="1" parent="1" source="fsdaaxAR7G3zy82fQWHU-2" target="fsdaaxAR7G3zy82fQWHU-6">
          <mxGeometry width="50" height="50" relative="1" as="geometry">
            <mxPoint x="530" y="480" as="sourcePoint" />
            <mxPoint x="580" y="430" as="targetPoint" />
          </mxGeometry>
        </mxCell>
      </root>
    </mxGraphModel>
  </diagram>
</mxfile>
